<?xml version="1.0" standalone="no"?>
<!DOCTYPE svg PUBLIC "-//W3C//DTD SVG 20010904//EN"
 "http://www.w3.org/TR/2001/REC-SVG-20010904/DTD/svg10.dtd">
<svg version="1.0" xmlns="http://www.w3.org/2000/svg"
 width="512.000000pt" height="512.000000pt" viewBox="0 0 512.000000 512.000000"
 preserveAspectRatio="xMidYMid meet">

<g transform="translate(0.000000,512.000000) scale(0.100000,-0.100000)"
fill="#000000" stroke="none">
<path d="M1023 5099 c-445 -53 -819 -359 -963 -787 -62 -184 -60 -133 -60
-1752 0 -1621 -2 -1567 61 -1754 114 -341 384 -615 719 -729 193 -66 86 -62
1780 -62 1694 0 1587 -4 1780 62 401 137 702 499 765 920 23 150 22 2993 0
3133 -69 421 -369 779 -765 913 -193 65 -71 61 -1735 63 -830 1 -1542 -2
-1582 -7z m442 -1000 c141 -68 221 -224 194 -373 -51 -281 -389 -388 -589
-186 -65 65 -93 128 -98 221 -9 160 68 283 217 346 77 32 202 29 276 -8z m205
-2039 l0 -1070 -350 0 -350 0 0 1070 0 1070 350 0 350 0 0 -1070z m1031 903
c0 -134 3 -164 12 -149 96 149 255 254 450 297 76 17 116 20 232 16 162 -5
258 -24 364 -73 142 -65 235 -159 300 -306 83 -188 91 -277 91 -1085 l0 -673
-335 0 -335 0 0 588 c0 335 -5 617 -10 657 -24 164 -81 260 -182 306 -72 33
-244 35 -327 4 -71 -26 -143 -92 -175 -160 -58 -121 -59 -128 -63 -787 l-5
-608 -334 0 -334 0 0 1070 0 1070 325 0 325 0 1 -167z"/>
</g>
</svg>
